<?xml version="1.0" encoding="utf-8" ?>
<svg baseProfile="tiny" fill="#FFFFFF" height="128" version="1.2" width="370" xmlns="http://www.w3.org/2000/svg" xmlns:ev="http://www.w3.org/2001/xml-events" xmlns:xlink="http://www.w3.org/1999/xlink"><defs /><rect fill="#000000" height="100%" width="100%" x="0" y="0" /><line stroke="rgb(100%,100%,100%)" x1="196" x2="192" y1="0" y2="10" /><line stroke="rgb(100%,100%,100%)" x1="192" x2="202" y1="10" y2="10" /><line stroke="rgb(100%,100%,100%)" x1="202" x2="206" y1="10" y2="0" /><line stroke="rgb(100%,100%,100%)" x1="192" x2="192" y1="10" y2="16" /><line stroke="rgb(100%,100%,100%)" x1="192" x2="202" y1="16" y2="16" /><line stroke="rgb(100%,100%,100%)" x1="202" x2="202" y1="16" y2="10" /><circle cx="183" cy="7" fill="grey" r="5" stroke="#000000" /><circle cx="168" cy="7" fill="grey" r="5" stroke="#000000" /><circle cx="153" cy="7" fill="grey" r="5" stroke="#000000" /><circle cx="138" cy="7" fill="grey" r="5" stroke="#000000" /><circle cx="123" cy="7" fill="grey" r="5" stroke="#000000" /><circle cx="108" cy="7" fill="grey" r="5" stroke="#000000" /><circle cx="93" cy="7" fill="grey" r="5" stroke="#000000" /><circle cx="78" cy="7" fill="grey" r="5" stroke="#000000" /><circle cx="63" cy="7" fill="grey" r="5" stroke="#000000" /><circle cx="48" cy="7" fill="grey" r="5" stroke="#000000" /><circle cx="215" cy="7" fill="grey" r="5" stroke="#000000" /><circle cx="230" cy="7" fill="grey" r="5" stroke="#000000" /><circle cx="245" cy="7" fill="grey" r="5" stroke="#000000" /><circle cx="260" cy="7" fill="grey" r="5" stroke="#000000" /><circle cx="275" cy="7" fill="grey" r="5" stroke="#000000" /><circle cx="290" cy="7" fill="grey" r="5" stroke="#000000" /><circle cx="305" cy="7" fill="grey" r="5" stroke="#000000" /><circle cx="320" cy="7" fill="grey" r="5" stroke="#000000" /><circle cx="335" cy="7" fill="grey" r="5" stroke="#000000" /><circle cx="350" cy="7" fill="grey" r="5" stroke="#000000" /><line stroke="rgb(100%,100%,100%)" x1="192" x2="188" y1="16" y2="26" /><line stroke="rgb(100%,100%,100%)" x1="188" x2="198" y1="26" y2="26" /><line stroke="rgb(100%,100%,100%)" x1="198" x2="202" y1="26" y2="16" /><line stroke="rgb(100%,100%,100%)" x1="188" x2="188" y1="26" y2="32" /><line stroke="rgb(100%,100%,100%)" x1="188" x2="198" y1="32" y2="32" /><line stroke="rgb(100%,100%,100%)" x1="198" x2="198" y1="32" y2="26" /><circle cx="179" cy="23" fill="grey" r="5" stroke="#000000" /><circle cx="164" cy="23" fill="grey" r="5" stroke="#000000" /><circle cx="149" cy="23" fill="grey" r="5" stroke="#000000" /><circle cx="134" cy="23" fill="grey" r="5" stroke="#000000" /><circle cx="119" cy="23" fill="grey" r="5" stroke="#000000" /><circle cx="104" cy="23" fill="grey" r="5" stroke="#000000" /><circle cx="89" cy="23" fill="grey" r="5" stroke="#000000" /><circle cx="74" cy="23" fill="grey" r="5" stroke="#000000" /><circle cx="59" cy="23" fill="grey" r="5" stroke="#000000" /><circle cx="44" cy="23" fill="grey" r="5" stroke="#000000" /><circle cx="211" cy="23" fill="grey" r="5" stroke="#000000" /><circle cx="226" cy="23" fill="#FACE48" r="5" stroke="#FACE48" /><circle cx="241" cy="23" fill="grey" r="5" stroke="#000000" /><circle cx="256" cy="23" fill="grey" r="5" stroke="#000000" /><circle cx="271" cy="23" fill="grey" r="5" stroke="#000000" /><circle cx="286" cy="23" fill="grey" r="5" stroke="#000000" /><circle cx="301" cy="23" fill="grey" r="5" stroke="#000000" /><circle cx="316" cy="23" fill="grey" r="5" stroke="#000000" /><circle cx="331" cy="23" fill="grey" r="5" stroke="#000000" /><circle cx="346" cy="23" fill="grey" r="5" stroke="#000000" /><line stroke="rgb(100%,100%,100%)" x1="188" x2="184" y1="32" y2="42" /><line stroke="rgb(100%,100%,100%)" x1="184" x2="194" y1="42" y2="42" /><line stroke="rgb(100%,100%,100%)" x1="194" x2="198" y1="42" y2="32" /><line stroke="rgb(100%,100%,100%)" x1="184" x2="184" y1="42" y2="48" /><line stroke="rgb(100%,100%,100%)" x1="184" x2="194" y1="48" y2="48" /><line stroke="rgb(100%,100%,100%)" x1="194" x2="194" y1="48" y2="42" /><circle cx="175" cy="39" fill="grey" r="5" stroke="#000000" /><circle cx="160" cy="39" fill="grey" r="5" stroke="#000000" /><circle cx="145" cy="39" fill="grey" r="5" stroke="#000000" /><circle cx="130" cy="39" fill="grey" r="5" stroke="#000000" /><circle cx="115" cy="39" fill="grey" r="5" stroke="#000000" /><circle cx="100" cy="39" fill="grey" r="5" stroke="#000000" /><circle cx="85" cy="39" fill="grey" r="5" stroke="#000000" /><circle cx="70" cy="39" fill="grey" r="5" stroke="#000000" /><circle cx="55" cy="39" fill="grey" r="5" stroke="#000000" /><circle cx="40" cy="39" fill="grey" r="5" stroke="#000000" /><circle cx="207" cy="39" fill="grey" r="5" stroke="#000000" /><circle cx="222" cy="39" fill="grey" r="5" stroke="#000000" /><circle cx="237" cy="39" fill="grey" r="5" stroke="#000000" /><circle cx="252" cy="39" fill="grey" r="5" stroke="#000000" /><circle cx="267" cy="39" fill="grey" r="5" stroke="#000000" /><circle cx="282" cy="39" fill="grey" r="5" stroke="#000000" /><circle cx="297" cy="39" fill="grey" r="5" stroke="#000000" /><circle cx="312" cy="39" fill="grey" r="5" stroke="#000000" /><circle cx="327" cy="39" fill="grey" r="5" stroke="#000000" /><circle cx="342" cy="39" fill="grey" r="5" stroke="#000000" /><line stroke="rgb(100%,100%,100%)" x1="184" x2="180" y1="48" y2="58" /><line stroke="rgb(100%,100%,100%)" x1="180" x2="190" y1="58" y2="58" /><line stroke="rgb(100%,100%,100%)" x1="190" x2="194" y1="58" y2="48" /><line stroke="rgb(100%,100%,100%)" x1="180" x2="180" y1="58" y2="64" /><line stroke="rgb(100%,100%,100%)" x1="180" x2="190" y1="64" y2="64" /><line stroke="rgb(100%,100%,100%)" x1="190" x2="190" y1="64" y2="58" /><circle cx="171" cy="55" fill="grey" r="5" stroke="#000000" /><circle cx="156" cy="55" fill="grey" r="5" stroke="#000000" /><circle cx="141" cy="55" fill="grey" r="5" stroke="#000000" /><circle cx="126" cy="55" fill="grey" r="5" stroke="#000000" /><circle cx="111" cy="55" fill="grey" r="5" stroke="#000000" /><circle cx="96" cy="55" fill="grey" r="5" stroke="#000000" /><circle cx="81" cy="55" fill="grey" r="5" stroke="#000000" /><circle cx="66" cy="55" fill="grey" r="5" stroke="#000000" /><circle cx="51" cy="55" fill="grey" r="5" stroke="#000000" /><circle cx="36" cy="55" fill="grey" r="5" stroke="#000000" /><circle cx="203" cy="55" fill="grey" r="5" stroke="#000000" /><circle cx="218" cy="55" fill="grey" r="5" stroke="#000000" /><circle cx="233" cy="55" fill="grey" r="5" stroke="#000000" /><circle cx="248" cy="55" fill="grey" r="5" stroke="#000000" /><circle cx="263" cy="55" fill="grey" r="5" stroke="#000000" /><circle cx="278" cy="55" fill="grey" r="5" stroke="#000000" /><circle cx="293" cy="55" fill="grey" r="5" stroke="#000000" /><circle cx="308" cy="55" fill="grey" r="5" stroke="#000000" /><circle cx="323" cy="55" fill="grey" r="5" stroke="#000000" /><circle cx="338" cy="55" fill="grey" r="5" stroke="#000000" /><line stroke="rgb(100%,100%,100%)" x1="180" x2="176" y1="64" y2="74" /><line stroke="rgb(100%,100%,100%)" x1="176" x2="186" y1="74" y2="74" /><line stroke="rgb(100%,100%,100%)" x1="186" x2="190" y1="74" y2="64" /><line stroke="rgb(100%,100%,100%)" x1="176" x2="176" y1="74" y2="80" /><line stroke="rgb(100%,100%,100%)" x1="176" x2="186" y1="80" y2="80" /><line stroke="rgb(100%,100%,100%)" x1="186" x2="186" y1="80" y2="74" /><circle cx="167" cy="71" fill="grey" r="5" stroke="#000000" /><circle cx="152" cy="71" fill="grey" r="5" stroke="#000000" /><circle cx="137" cy="71" fill="grey" r="5" stroke="#000000" /><circle cx="122" cy="71" fill="grey" r="5" stroke="#000000" /><circle cx="107" cy="71" fill="grey" r="5" stroke="#000000" /><circle cx="92" cy="71" fill="grey" r="5" stroke="#000000" /><circle cx="77" cy="71" fill="grey" r="5" stroke="#000000" /><circle cx="62" cy="71" fill="grey" r="5" stroke="#000000" /><circle cx="47" cy="71" fill="grey" r="5" stroke="#000000" /><circle cx="32" cy="71" fill="grey" r="5" stroke="#000000" /><circle cx="199" cy="71" fill="grey" r="5" stroke="#000000" /><circle cx="214" cy="71" fill="grey" r="5" stroke="#000000" /><circle cx="229" cy="71" fill="grey" r="5" stroke="#000000" /><circle cx="244" cy="71" fill="grey" r="5" stroke="#000000" /><circle cx="259" cy="71" fill="grey" r="5" stroke="#000000" /><circle cx="274" cy="71" fill="grey" r="5" stroke="#000000" /><circle cx="289" cy="71" fill="grey" r="5" stroke="#000000" /><circle cx="304" cy="71" fill="grey" r="5" stroke="#000000" /><line stroke="rgb(100%,100%,100%)" x1="176" x2="172" y1="80" y2="90" /><line stroke="rgb(100%,100%,100%)" x1="172" x2="182" y1="90" y2="90" /><line stroke="rgb(100%,100%,100%)" x1="182" x2="186" y1="90" y2="80" /><line stroke="rgb(100%,100%,100%)" x1="172" x2="172" y1="90" y2="96" /><line stroke="rgb(100%,100%,100%)" x1="172" x2="182" y1="96" y2="96" /><line stroke="rgb(100%,100%,100%)" x1="182" x2="182" y1="96" y2="90" /><circle cx="163" cy="87" fill="grey" r="5" stroke="#000000" /><circle cx="148" cy="87" fill="grey" r="5" stroke="#000000" /><circle cx="133" cy="87" fill="grey" r="5" stroke="#000000" /><circle cx="118" cy="87" fill="grey" r="5" stroke="#000000" /><circle cx="103" cy="87" fill="grey" r="5" stroke="#000000" /><circle cx="88" cy="87" fill="grey" r="5" stroke="#000000" /><circle cx="73" cy="87" fill="grey" r="5" stroke="#000000" /><circle cx="58" cy="87" fill="grey" r="5" stroke="#000000" /><circle cx="43" cy="87" fill="grey" r="5" stroke="#000000" /><circle cx="28" cy="87" fill="grey" r="5" stroke="#000000" /><circle cx="195" cy="87" fill="grey" r="5" stroke="#000000" /><circle cx="210" cy="87" fill="grey" r="5" stroke="#000000" /><circle cx="225" cy="87" fill="grey" r="5" stroke="#000000" /><circle cx="240" cy="87" fill="grey" r="5" stroke="#000000" /><circle cx="255" cy="87" fill="grey" r="5" stroke="#000000" /><circle cx="270" cy="87" fill="grey" r="5" stroke="#000000" /><line stroke="rgb(100%,100%,100%)" x1="172" x2="168" y1="96" y2="106" /><line stroke="rgb(100%,100%,100%)" x1="168" x2="178" y1="106" y2="106" /><line stroke="rgb(100%,100%,100%)" x1="178" x2="182" y1="106" y2="96" /><line stroke="rgb(100%,100%,100%)" x1="168" x2="168" y1="106" y2="112" /><line stroke="rgb(100%,100%,100%)" x1="168" x2="178" y1="112" y2="112" /><line stroke="rgb(100%,100%,100%)" x1="178" x2="178" y1="112" y2="106" /><circle cx="159" cy="103" fill="grey" r="5" stroke="#000000" /><circle cx="144" cy="103" fill="grey" r="5" stroke="#000000" /><circle cx="129" cy="103" fill="grey" r="5" stroke="#000000" /><circle cx="114" cy="103" fill="grey" r="5" stroke="#000000" /><circle cx="99" cy="103" fill="grey" r="5" stroke="#000000" /><circle cx="84" cy="103" fill="grey" r="5" stroke="#000000" /><circle cx="69" cy="103" fill="grey" r="5" stroke="#000000" /><circle cx="54" cy="103" fill="grey" r="5" stroke="#000000" /><circle cx="39" cy="103" fill="grey" r="5" stroke="#000000" /><circle cx="24" cy="103" fill="grey" r="5" stroke="#000000" /><circle cx="191" cy="103" fill="grey" r="5" stroke="#000000" /><circle cx="206" cy="103" fill="grey" r="5" stroke="#000000" /><circle cx="221" cy="103" fill="grey" r="5" stroke="#000000" /><circle cx="236" cy="103" fill="grey" r="5" stroke="#000000" /><line stroke="rgb(100%,100%,100%)" x1="168" x2="164" y1="112" y2="122" /><line stroke="rgb(100%,100%,100%)" x1="164" x2="174" y1="122" y2="122" /><line stroke="rgb(100%,100%,100%)" x1="174" x2="178" y1="122" y2="112" /><line stroke="rgb(100%,100%,100%)" x1="164" x2="164" y1="122" y2="128" /><line stroke="rgb(100%,100%,100%)" x1="164" x2="174" y1="128" y2="128" /><line stroke="rgb(100%,100%,100%)" x1="174" x2="174" y1="128" y2="122" /><circle cx="155" cy="119" fill="grey" r="5" stroke="#000000" /><circle cx="140" cy="119" fill="grey" r="5" stroke="#000000" /><circle cx="125" cy="119" fill="grey" r="5" stroke="#000000" /><circle cx="110" cy="119" fill="grey" r="5" stroke="#000000" /><circle cx="95" cy="119" fill="grey" r="5" stroke="#000000" /><circle cx="80" cy="119" fill="grey" r="5" stroke="#000000" /><circle cx="65" cy="119" fill="grey" r="5" stroke="#000000" /><circle cx="50" cy="119" fill="grey" r="5" stroke="#000000" /><circle cx="35" cy="119" fill="grey" r="5" stroke="#000000" /><circle cx="20" cy="119" fill="grey" r="5" stroke="#000000" /><circle cx="187" cy="119" fill="grey" r="5" stroke="#000000" /><circle cx="202" cy="119" fill="grey" r="5" stroke="#000000" /></svg>