<?xml version="1.0" encoding="UTF-8" standalone="no"?>
<!DOCTYPE svg PUBLIC "-//W3C//DTD SVG 1.1//EN" "http://www.w3.org/Graphics/SVG/1.1/DTD/svg11.dtd">
<svg width="100%" height="100%" viewBox="0 0 48 48" version="1.1" xmlns="http://www.w3.org/2000/svg" xmlns:xlink="http://www.w3.org/1999/xlink" xml:space="preserve" xmlns:serif="http://www.serif.com/" style="fill-rule:evenodd;clip-rule:evenodd;stroke-linejoin:round;stroke-miterlimit:2;">
    <rect x="-1.609" y="-1.026" width="50.041" height="55.565" style="fill:rgb(250,206,72);"/>
    <g transform="matrix(0.0747993,0,0,0.0747993,25.7369,22.9327)">
        <g transform="matrix(1,0,0,1,-241.611,-275.715)">
            <clipPath id="_clip1">
                <rect x="0" y="0" width="483.223" height="551.431"/>
            </clipPath>
            <g clip-path="url(#_clip1)">
                <path d="M161.988,98.124C186.951,95.819 206.346,74.313 206.346,49.158C206.346,22.083 184.263,0 157.188,0C130.112,0 108.03,22.083 108.03,49.158C108.03,57.415 110.334,65.864 114.175,72.969L131.69,319.436L312.087,319.484L386.078,492.85L483.223,454.752L468.18,418.932L413.813,438.557L342.223,273.276L174.493,274.403L172.19,243.19L293.613,243.239L293.613,197.056L167.559,197.006L161.988,98.124Z"/>
                <path d="M343.42,451.591C312.973,511.778 249.245,551.431 181.27,551.431C81.43,551.431 0,470.001 0,370.161C0,300.061 42.485,234.917 105.882,206.04L109.984,259.578C72.487,283.206 49.372,325.84 49.372,370.528C49.372,442.955 108.443,502.025 180.869,502.025C247.131,502.025 303.634,451.174 311.339,385.938L343.42,451.591Z"/>
            </g>
        </g>
    </g>
</svg>
