<svg id="Calque_2" data-name="Calque 2" xmlns="http://www.w3.org/2000/svg" xmlns:xlink="http://www.w3.org/1999/xlink" viewBox="0 0 396.78 82.43"><defs><style>.cls-1{fill:url(#Dégradé_sans_nom_4);}</style><linearGradient id="Dégradé_sans_nom_4" x1="95.67" y1="328.36" x2="492.45" y2="328.36" gradientUnits="userSpaceOnUse"><stop offset="0" stop-color="#fdd08b"/><stop offset="1" stop-color="#c19356"/></linearGradient></defs><title>Logo-Vinuma-Web-gold</title><path class="cls-1" d="M160.83,352.44c-.27.7-.54,1-1.62,1a1.29,1.29,0,0,1-1.44-1l-21.41-61.9c-4.14,0-5,.1-5.85.1a1.64,1.64,0,0,1-1.35-1.8,1.6,1.6,0,0,1,1.35-1.7,57.79,57.79,0,0,0,9.18.5h6a57.71,57.71,0,0,0,9.17-.5,1.53,1.53,0,0,1,1.35,1.7c0,1.1-.63,1.8-1.35,1.8-.9,0-1.8-.1-6-.1l14.93,43.4,15.39-43.4h-.63c-4.32,0-4.59.1-5.49.1-.72,0-1.35-.7-1.35-1.8a1.53,1.53,0,0,1,1.35-1.7,38.54,38.54,0,0,0,7.56.5h.45a37.41,37.41,0,0,0,7.56-.5,1.53,1.53,0,0,1,1.35,1.7c0,1.1-.63,1.8-1.35,1.8-.9,0-1.17-.1-5.22-.1h-.72Zm64.8-4a1.64,1.64,0,0,1,1.35,1.8,1.52,1.52,0,0,1-1.35,1.7,57.79,57.79,0,0,0-9.18-.5h-5.58a57.79,57.79,0,0,0-9.18.5c-.71,0-1.35-.59-1.35-1.7s.64-1.8,1.35-1.8c.9,0,1.8.1,6.12.1v-58c-4.32,0-5.22.1-6.12.1-.71,0-1.35-.7-1.35-1.8a1.54,1.54,0,0,1,1.35-1.7,57.79,57.79,0,0,0,9.18.5h5.58a57.79,57.79,0,0,0,9.18-.5,1.6,1.6,0,0,1,1.35,1.7,1.64,1.64,0,0,1-1.35,1.8c-.9,0-1.8-.1-6.21-.1v58C223.83,348.54,224.73,348.44,225.63,348.44Zm29,.1c4.41,0,5.31-.1,6.21-.1a1.64,1.64,0,0,1,1.35,1.8,1.52,1.52,0,0,1-1.35,1.7,69.24,69.24,0,0,0-7.83-.5,66.74,66.74,0,0,0-7.83.5,1.52,1.52,0,0,1-1.35-1.7,1.64,1.64,0,0,1,1.35-1.8c.9,0,1.8.1,6.21.1v-58c-4.41,0-5.31.1-6.21.1a1.64,1.64,0,0,1-1.35-1.8,1.6,1.6,0,0,1,1.35-1.7,64,64,0,0,0,7.83.5c5.67,0,8-.2,9-.2,1.17,0,1.8.6,3.6,3.7l21.78,36.6v-37.2c-4.32,0-5.22.1-6.12.1a1.64,1.64,0,0,1-1.35-1.8,1.6,1.6,0,0,1,1.35-1.7,61.72,61.72,0,0,0,7.83.5,61,61,0,0,0,7.74-.5,1.53,1.53,0,0,1,1.35,1.7c0,1.1-.63,1.8-1.35,1.8-.9,0-1.8-.1-6.12-.1v59.6c0,2.1-.54,2.8-1.26,2.8s-1.26-.59-2.07-2l-32.76-54.8Zm86.94,4.81c-12.78,0-20.88-8-20.88-20.31v-42.5c-4.32,0-5.22.1-6.12.1a1.64,1.64,0,0,1-1.35-1.8,1.6,1.6,0,0,1,1.35-1.7,57.79,57.79,0,0,0,9.18.5h5.58a57.79,57.79,0,0,0,9.18-.5,1.6,1.6,0,0,1,1.35,1.7,1.64,1.64,0,0,1-1.35,1.8c-.9,0-1.8-.1-6.12-.1v44.4c0,8.8,4.5,14.41,13.32,14.41,9.63,0,13.41-7.91,13.41-16.31v-42.5c-4.32,0-5.22.1-6.12.1-.72,0-1.35-.7-1.35-1.8a1.53,1.53,0,0,1,1.35-1.7,61,61,0,0,0,7.74.5,61.72,61.72,0,0,0,7.83-.5,1.53,1.53,0,0,1,1.35,1.7c0,1.1-.63,1.8-1.35,1.8-.9,0-1.8-.1-6.12-.1V333C362.43,345.34,355.77,353.35,341.55,353.35Zm109.26-1.41a57.79,57.79,0,0,0-9.18-.5h-4.86a57.08,57.08,0,0,0-9.09.5c-.72,0-1.35-.59-1.35-1.7s.63-1.8,1.35-1.8c.9,0,1.8.1,6.12.1v-47.7l-17.64,51.6c-.27.7-.54,1-1.53,1s-1.35-.39-1.53-1L396,300.34v48.2c4.32,0,5.22-.1,6.12-.1.72,0,1.35.7,1.35,1.8s-.63,1.7-1.35,1.7a63.61,63.61,0,0,0-7.74-.5,64.34,64.34,0,0,0-7.83.5c-.72,0-1.35-.59-1.35-1.7s.63-1.8,1.35-1.8c.9,0,1.8.1,6.12.1v-58c-4.32,0-5.22.1-6.12.1-.72,0-1.35-.7-1.35-1.8a1.53,1.53,0,0,1,1.35-1.7,61.72,61.72,0,0,0,7.83.5h7.92c1.26,0,1.35.4,2.16,2.9l14.31,43.8,15-43.8c.45-1.3.36-2.8,1.89-2.9h5.94a57.79,57.79,0,0,0,9.18-.5,1.53,1.53,0,0,1,1.35,1.7c0,1.1-.63,1.8-1.35,1.8-.9,0-1.8-.1-6.12-.1v58c4.32,0,5.22-.1,6.12-.1.72,0,1.35.7,1.35,1.8S451.53,351.94,450.81,351.94ZM95.67,322.31l15.58,15.53,15.57-15.53-15.57-15.53Zm365.64,0,15.57,15.53,15.57-15.53-15.57-15.53Zm15.57,47.26v-2.83H112.13v2.83Z" transform="translate(-95.67 -287.14)"/></svg>